<svg xmlns="http://www.w3.org/2000/svg" viewBox="0 0 800 380" font-family="Inter, system-ui, -apple-system, 'Segoe UI', Roboto, sans-serif">
<rect width="800" height="380" fill="#fff"/>
<rect x="24" y="24" width="300" height="200" rx="8" fill="#9cc0dc"/><path d="M24 148.0L99.0 84.0L159.0 134.0L234.0 74.0L324 144.0V156.0H24Z" fill="#5f8a5a"/><rect x="24" y="156.0" width="300" height="68.0" rx="0" fill="#6fa3c9"/><path d="M78.0 156.0l42.00000000000001 -44.0 42.00000000000001 44.0z" fill="#e0a43a"/><path d="M120.0 112.0v44.0" stroke="#8a5a1f" stroke-width="2"/><text x="174" y="256" font-size="14" font-weight="400" fill="#5b6270" text-anchor="middle">Photo on a trip page</text>
<circle cx="372" cy="55" r="13" fill="#b42318"/><path d="M366.8 49.8l10.4 10.4M377.2 49.8l-10.4 10.4" stroke="#fff" stroke-width="3" stroke-linecap="round"/>
<rect x="396" y="40" width="380" height="30" rx="6" fill="#2b2f3a"/><text x="406" y="60" font-size="13" font-weight="400" fill="#e8eaee" text-anchor="start" font-family="ui-monospace, SFMono-Regular, Menlo, Consolas, monospace">alt="IMG_4032.jpg"</text>
<text x="396" y="96" font-size="14" font-weight="600" fill="#b42318" text-anchor="start">A file name tells people nothing</text>
<circle cx="372" cy="165" r="13" fill="#b42318"/><path d="M366.8 159.8l10.4 10.4M377.2 159.8l-10.4 10.4" stroke="#fff" stroke-width="3" stroke-linecap="round"/>
<rect x="396" y="150" width="380" height="30" rx="6" fill="#2b2f3a"/><text x="406" y="170" font-size="13" font-weight="400" fill="#e8eaee" text-anchor="start" font-family="ui-monospace, SFMono-Regular, Menlo, Consolas, monospace">alt="image"</text>
<text x="396" y="206" font-size="14" font-weight="600" fill="#b42318" text-anchor="start">Placeholder text, not a description</text>
<circle cx="372" cy="275" r="13" fill="#44723f"/><path d="M365.93333333333334 275l4.333333333333334 4.333333333333334 8.666666666666668 -9.533333333333333" fill="none" stroke="#fff" stroke-width="3" stroke-linecap="round" stroke-linejoin="round"/>
<rect x="396" y="260" width="380" height="30" rx="6" fill="#2b2f3a"/><text x="406" y="280" font-size="13" font-weight="400" fill="#e8eaee" text-anchor="start" font-family="ui-monospace, SFMono-Regular, Menlo, Consolas, monospace">alt="Tent pitched on the shore of Pine Lake"</text>
<text x="396" y="316" font-size="14" font-weight="600" fill="#365c32" text-anchor="start">Says what the photo shows and why it is there</text>
</svg>
