<svg xmlns="http://www.w3.org/2000/svg" viewBox="0 0 800 420" font-family="Inter, system-ui, -apple-system, 'Segoe UI', Roboto, sans-serif">
<rect width="800" height="420" fill="#fff"/>
<rect x="24" y="20" width="364" height="380" rx="16" fill="#f4f8f3" stroke="#cfe1ce" stroke-width="2"/>
<circle cx="58" cy="58" r="15" fill="#44723f"/><path d="M51 58l5 5 10-11" fill="none" stroke="#fff" stroke-width="3" stroke-linecap="round" stroke-linejoin="round"/><text x="82" y="65" font-size="19" font-weight="700" fill="#365c32">Reflows at 200%</text>
<rect x="412" y="20" width="364" height="380" rx="16" fill="#fdf0ef" stroke="#f4c7c3" stroke-width="2"/>
<circle cx="446" cy="58" r="15" fill="#b42318"/><path d="M440 52l12 12M452 52l-12 12" stroke="#fff" stroke-width="3" stroke-linecap="round"/><text x="470" y="65" font-size="19" font-weight="700" fill="#b42318">Scrolls sideways</text>
<rect x="48" y="96" width="316" height="240" rx="10" fill="#fff" stroke="#cfd4ce" stroke-width="2"/>
<rect x="48" y="96" width="316" height="26" rx="10" fill="#e9ecef"/>
<circle cx="64" cy="109" r="4" fill="#cfd4ce"/><circle cx="78" cy="109" r="4" fill="#cfd4ce"/><circle cx="92" cy="109" r="4" fill="#cfd4ce"/>
<text x="348" y="114" font-size="12" fill="#5b6170" text-anchor="end">200%</text>
<rect x="64" y="142" width="280" height="16" rx="8" fill="#8b93a1"/>
<rect x="64" y="168" width="250" height="16" rx="8" fill="#8b93a1"/>
<rect x="64" y="194" width="270" height="16" rx="8" fill="#8b93a1"/>
<rect x="64" y="220" width="200" height="16" rx="8" fill="#8b93a1"/>
<rect x="64" y="246" width="280" height="16" rx="8" fill="#8b93a1"/>
<rect x="64" y="272" width="240" height="16" rx="8" fill="#8b93a1"/>
<rect x="64" y="298" width="150" height="16" rx="8" fill="#8b93a1"/>
<rect x="436" y="96" width="316" height="240" rx="10" fill="#fff" stroke="#cfd4ce" stroke-width="2"/>
<rect x="436" y="96" width="316" height="26" rx="10" fill="#e9ecef"/>
<circle cx="452" cy="109" r="4" fill="#cfd4ce"/><circle cx="466" cy="109" r="4" fill="#cfd4ce"/><circle cx="480" cy="109" r="4" fill="#cfd4ce"/>
<text x="736" y="114" font-size="12" fill="#5b6170" text-anchor="end">200%</text>
<clipPath id="c"><rect x="438" y="124" width="312" height="190"/></clipPath><g clip-path="url(#c)">
<rect x="452" y="142" width="520" height="16" rx="8" fill="#8b93a1"/>
<rect x="452" y="170" width="480" height="16" rx="8" fill="#8b93a1"/>
<rect x="452" y="198" width="500" height="16" rx="8" fill="#8b93a1"/>
<rect x="452" y="226" width="470" height="16" rx="8" fill="#8b93a1"/>
<rect x="452" y="254" width="510" height="16" rx="8" fill="#8b93a1"/>
<rect x="452" y="282" width="490" height="16" rx="8" fill="#8b93a1"/>
</g>
<rect x="440" y="318" width="308" height="12" rx="6" fill="#e9ecef"/><rect x="444" y="320" width="150" height="8" rx="4" fill="#8b93a1"/>
<path d="M700 290h40M740 290l-10-8M740 290l-10 8" stroke="#b42318" stroke-width="3" stroke-linecap="round" fill="none"/>
<text x="48" y="370" font-size="14.5" fill="#353a47">Each line fits the window</text>
<text x="436" y="370" font-size="14.5" fill="#353a47">Every line needs horizontal scrolling</text>
</svg>