<svg xmlns="http://www.w3.org/2000/svg" viewBox="0 0 800 300" font-family="Inter, system-ui, -apple-system, 'Segoe UI', Roboto, sans-serif">
<rect width="800" height="300" fill="#fff"/>
<defs><clipPath id="tk"><rect x="426" y="90" width="140" height="32"/></clipPath></defs>
<rect x="24" y="20" width="176" height="260" rx="16" fill="#f5f6f8" stroke="#d9dde3" stroke-width="2"/><rect x="42" y="56" width="140" height="100" rx="8" fill="#8fb3cf"/><path d="M42 156L84.0 101.0L112.0 126.0L142.8 91.0L182 156Z" fill="#44723f"/><circle cx="156.8" cy="81.0" r="10.0" fill="#fff" opacity="0.8"/><circle cx="96.0" cy="144" r="4" fill="#fff" opacity="0.55"/><circle cx="112.0" cy="144" r="5" fill="#fff" opacity="1"/><circle cx="128.0" cy="144" r="4" fill="#fff" opacity="0.55"/><path d="M162 156l0 0" /><path d="M146 98l10 8-10 8" fill="none" stroke="#fff" stroke-width="3" stroke-linecap="round" stroke-linejoin="round"/><text x="112" y="196" font-size="19" font-weight="700" fill="#1f2430" text-anchor="middle">Moving</text>
<text x="112" y="222" font-size="14" font-weight="400" fill="#5b6270" text-anchor="middle">Auto-rotating slides</text>
<rect x="216" y="20" width="176" height="260" rx="16" fill="#f5f6f8" stroke="#d9dde3" stroke-width="2"/><rect x="234" y="56" width="140" height="100" rx="8" fill="#fff" stroke="#d9dde3"/><rect x="264" y="88" width="80" height="36" rx="18" fill="#b42318"/><text x="304" y="112" font-size="16" font-weight="800" fill="#fff" text-anchor="middle">SALE</text>
<path d="M256 86l6 -8M250 84l-2 -8" stroke="#b42318" stroke-width="2.5" stroke-linecap="round"/><path d="M364 86l6 -8M358 84l-2 -8" stroke="#b42318" stroke-width="2.5" stroke-linecap="round"/><path d="M256 138l6 -8M250 136l-2 -8" stroke="#b42318" stroke-width="2.5" stroke-linecap="round"/><path d="M364 138l6 -8M358 136l-2 -8" stroke="#b42318" stroke-width="2.5" stroke-linecap="round"/><text x="304" y="196" font-size="19" font-weight="700" fill="#1f2430" text-anchor="middle">Blinking</text>
<text x="304" y="222" font-size="14" font-weight="400" fill="#5b6270" text-anchor="middle">A flashing badge</text>
<rect x="408" y="20" width="176" height="260" rx="16" fill="#f5f6f8" stroke="#d9dde3" stroke-width="2"/><rect x="426" y="56" width="140" height="100" rx="8" fill="#fff" stroke="#d9dde3"/><rect x="426" y="90" width="140" height="32" fill="#1f2430"/><text clip-path="url(#tk)" x="434" y="112" font-size="13" font-weight="600" fill="#fff" text-anchor="start">…in stock • Free ship</text>
<path d="M542 136h-22m0 0l6-5m-6 5l6 5" stroke="#5b6270" stroke-width="2.5" fill="none" stroke-linecap="round" stroke-linejoin="round"/><text x="496" y="196" font-size="19" font-weight="700" fill="#1f2430" text-anchor="middle">Scrolling</text>
<text x="496" y="222" font-size="14" font-weight="400" fill="#5b6270" text-anchor="middle">A news ticker</text>
<rect x="600" y="20" width="176" height="260" rx="16" fill="#f5f6f8" stroke="#d9dde3" stroke-width="2"/><rect x="618" y="56" width="140" height="100" rx="8" fill="#fff" stroke="#d9dde3"/><circle cx="634" cy="74" r="5" fill="#b42318"/><text x="644" y="79" font-size="12" font-weight="800" fill="#b42318" text-anchor="start">LIVE</text>
<text x="632" y="106" font-size="14" font-weight="600" fill="#1f2430" text-anchor="start">Hawks</text>
<text x="744" y="106" font-size="14" font-weight="800" fill="#1f2430" text-anchor="end">21</text>
<text x="632" y="134" font-size="14" font-weight="600" fill="#1f2430" text-anchor="start">Rovers</text>
<text x="744" y="134" font-size="14" font-weight="800" fill="#1f2430" text-anchor="end">17</text>
<text x="688" y="196" font-size="19" font-weight="700" fill="#1f2430" text-anchor="middle">Auto-updating</text>
<text x="688" y="222" font-size="14" font-weight="400" fill="#5b6270" text-anchor="middle">A live score feed</text>
<text x="400" y="274" font-size="1" font-weight="400" fill="#1f2430" text-anchor="start"></text>
</svg>
