<svg xmlns="http://www.w3.org/2000/svg" viewBox="0 0 800 400" font-family="Inter, system-ui, -apple-system, 'Segoe UI', Roboto, sans-serif">
<rect width="800" height="400" fill="#fff"/>
<defs><pattern id="hatch" width="8" height="8" patternUnits="userSpaceOnUse" patternTransform="rotate(45)"><rect width="8" height="8" fill="#fff"/><rect width="3" height="8" fill="#d64545"/></pattern></defs>
<rect x="24" y="20" width="364" height="360" rx="16" fill="#fdf0ef" stroke="#f4c7c3" stroke-width="2"/>
<circle cx="58" cy="58" r="15" fill="#b42318"/><path d="M52.0 52.0l12.0 12.0M64.0 52.0l-12.0 12.0" stroke="#fff" stroke-width="3" stroke-linecap="round"/>
<text x="82" y="65" font-size="19" font-weight="700" fill="#b42318" text-anchor="start">Legend by color only</text>
<rect x="84" y="180" width="32" height="120" fill="#3f9a4a"/><rect x="120" y="210" width="32" height="90" fill="#d64545"/><text x="118" y="322" font-size="13" font-weight="600" fill="#5b6270" text-anchor="middle">Jan</text>
<rect x="180" y="140" width="32" height="160" fill="#3f9a4a"/><rect x="216" y="190" width="32" height="110" fill="#d64545"/><text x="214" y="322" font-size="13" font-weight="600" fill="#5b6270" text-anchor="middle">Feb</text>
<rect x="276" y="160" width="32" height="140" fill="#3f9a4a"/><rect x="312" y="150" width="32" height="150" fill="#d64545"/><text x="310" y="322" font-size="13" font-weight="600" fill="#5b6270" text-anchor="middle">Mar</text>
<path d="M68 300h290" stroke="#8b93a1" stroke-width="1.5"/><rect x="72" y="334" width="14" height="14" fill="#3f9a4a"/><text x="92" y="346" font-size="13" font-weight="600" fill="#1f2430" text-anchor="start">Tents</text>
<rect x="214" y="334" width="14" height="14" fill="#d64545"/><text x="234" y="346" font-size="13" font-weight="600" fill="#1f2430" text-anchor="start">Packs</text>
<rect x="412" y="20" width="364" height="360" rx="16" fill="#f4f8f3" stroke="#cfe1ce" stroke-width="2"/>
<circle cx="446" cy="58" r="15" fill="#44723f"/><path d="M439.0 58l5.0 5.0 10.0 -11.0" fill="none" stroke="#fff" stroke-width="3" stroke-linecap="round" stroke-linejoin="round"/>
<text x="470" y="65" font-size="19" font-weight="700" fill="#365c32" text-anchor="start">Pattern and labels</text>
<rect x="472" y="180" width="32" height="120" fill="#3f9a4a"/><rect x="508" y="210" width="32" height="90" fill="url(#hatch)" stroke="#b42318" stroke-width="2"/><text x="506" y="322" font-size="13" font-weight="600" fill="#5b6270" text-anchor="middle">Jan</text>
<rect x="568" y="140" width="32" height="160" fill="#3f9a4a"/><rect x="604" y="190" width="32" height="110" fill="url(#hatch)" stroke="#b42318" stroke-width="2"/><text x="602" y="322" font-size="13" font-weight="600" fill="#5b6270" text-anchor="middle">Feb</text>
<rect x="664" y="160" width="32" height="140" fill="#3f9a4a"/><rect x="700" y="150" width="32" height="150" fill="url(#hatch)" stroke="#b42318" stroke-width="2"/><text x="698" y="322" font-size="13" font-weight="600" fill="#5b6270" text-anchor="middle">Mar</text>
<path d="M456 300h290" stroke="#8b93a1" stroke-width="1.5"/><text x="488" y="174" font-size="12" font-weight="700" fill="#365c32" text-anchor="middle">Tents</text>
<text x="526" y="204" font-size="12" font-weight="700" fill="#b42318" text-anchor="middle">Packs</text>
<rect x="460" y="334" width="14" height="14" fill="#3f9a4a"/><text x="480" y="346" font-size="13" font-weight="600" fill="#1f2430" text-anchor="start">Tents (solid)</text>
<rect x="602" y="334" width="14" height="14" fill="url(#hatch)" stroke="#b42318"/><text x="622" y="346" font-size="13" font-weight="600" fill="#1f2430" text-anchor="start">Packs (striped)</text>
</svg>
