<svg xmlns="http://www.w3.org/2000/svg" viewBox="0 0 800 380" font-family="Inter, system-ui, -apple-system, 'Segoe UI', Roboto, sans-serif">
<rect width="800" height="380" fill="#fff"/>
<rect x="24" y="20" width="364" height="340" rx="16" fill="#fdf0ef" stroke="#f4c7c3" stroke-width="2"/>
<circle cx="58" cy="58" r="15" fill="#b42318"/><path d="M52 52l12 12M64 52l-12 12" stroke="#fff" stroke-width="3" stroke-linecap="round"/>
<text x="82" y="65" font-size="17" font-weight="700" fill="#b42318" text-anchor="start">Radio buttons with no group</text>
<rect x="412" y="20" width="364" height="340" rx="16" fill="#f4f8f3" stroke="#cfe1ce" stroke-width="2"/>
<circle cx="446" cy="58" r="15" fill="#44723f"/><path d="M439 58l5 5 10-11" fill="none" stroke="#fff" stroke-width="3" stroke-linecap="round" stroke-linejoin="round"/>
<text x="470" y="65" font-size="15" font-weight="700" fill="#365c32" text-anchor="start">Grouped with fieldset and legend</text><text x="48" y="114" font-size="15" font-weight="800" fill="#1f2430" text-anchor="start">Delivery speed</text><circle cx="60" cy="148" r="9" fill="#fff" stroke="#5b6270" stroke-width="2"/><circle cx="60" cy="148" r="4.5" fill="#1f2430"/><text x="80" y="153" font-size="14" font-weight="400" fill="#1f2430" text-anchor="start">Standard (3 to 5 days)</text><circle cx="60" cy="182" r="9" fill="#fff" stroke="#5b6270" stroke-width="2"/><text x="80" y="187" font-size="14" font-weight="400" fill="#1f2430" text-anchor="start">Express (next day)</text><circle cx="60" cy="216" r="9" fill="#fff" stroke="#5b6270" stroke-width="2"/><text x="80" y="221" font-size="14" font-weight="400" fill="#1f2430" text-anchor="start">Collect in store</text><text x="206" y="306" font-size="14" font-weight="700" fill="#b42318" text-anchor="middle">Announced: "Standard, radio button". The</text>
<text x="206" y="325" font-size="14" font-weight="700" fill="#b42318" text-anchor="middle">question is never read out</text><rect x="430" y="90" width="328" height="168" rx="10" fill="none" stroke="#44723f" stroke-width="2" stroke-dasharray="6 5"/><text x="440" y="114" font-size="15" font-weight="800" fill="#365c32" text-anchor="start">Delivery speed</text><circle cx="448" cy="148" r="9" fill="#fff" stroke="#5b6270" stroke-width="2"/><circle cx="448" cy="148" r="4.5" fill="#1f2430"/><text x="468" y="153" font-size="14" font-weight="400" fill="#1f2430" text-anchor="start">Standard (3 to 5 days)</text><circle cx="448" cy="182" r="9" fill="#fff" stroke="#5b6270" stroke-width="2"/><text x="468" y="187" font-size="14" font-weight="400" fill="#1f2430" text-anchor="start">Express (next day)</text><circle cx="448" cy="216" r="9" fill="#fff" stroke="#5b6270" stroke-width="2"/><text x="468" y="221" font-size="14" font-weight="400" fill="#1f2430" text-anchor="start">Collect in store</text><text x="594" y="306" font-size="14" font-weight="700" fill="#365c32" text-anchor="middle">Announced: "Delivery speed, group.</text>
<text x="594" y="325" font-size="14" font-weight="700" fill="#365c32" text-anchor="middle">Standard, radio button, 1 of 3"</text>
</svg>
