<svg xmlns="http://www.w3.org/2000/svg" viewBox="0 0 800 400" font-family="Inter, system-ui, -apple-system, 'Segoe UI', Roboto, sans-serif">
<rect width="800" height="400" fill="#fff"/>
<rect x="24" y="20" width="364" height="360" rx="16" fill="#fdf0ef" stroke="#f4c7c3" stroke-width="2"/>
<circle cx="58" cy="58" r="15" fill="#b42318"/><path d="M52.0 52.0l12.0 12.0M64.0 52.0l-12.0 12.0" stroke="#fff" stroke-width="3" stroke-linecap="round"/>
<text x="82" y="65" font-size="19" font-weight="700" fill="#b42318" text-anchor="start">Placeholder as the label</text>
<text x="48" y="94" font-size="13" font-weight="700" fill="#5b6270" text-anchor="start">Before typing</text>
<rect x="48" y="104" width="316" height="38" rx="8" fill="#fff" stroke="#c7ccd4" stroke-width="1.5"/><text x="60" y="128.0" font-size="15" font-weight="400" fill="#8b93a1" text-anchor="start">Email</text>
<text x="48" y="178" font-size="13" font-weight="700" fill="#5b6270" text-anchor="start">After typing</text>
<rect x="48" y="188" width="316" height="38" rx="8" fill="#fff" stroke="#c7ccd4" stroke-width="1.5"/><text x="60" y="212.0" font-size="15" font-weight="400" fill="#1f2430" text-anchor="start">sam@example</text>
<rect x="48" y="236" width="316" height="38" rx="8" fill="#fff" stroke="#c7ccd4" stroke-width="1.5"/><text x="60" y="260.0" font-size="15" font-weight="400" fill="#1f2430" text-anchor="start">Tr41l-Mix</text>
<text x="206" y="316" font-size="14" font-weight="700" fill="#b42318" text-anchor="middle">Once people type, the hint is gone.</text>
<text x="206" y="338" font-size="14" font-weight="700" fill="#b42318" text-anchor="middle">Which field was which?</text>
<rect x="412" y="20" width="364" height="360" rx="16" fill="#f4f8f3" stroke="#cfe1ce" stroke-width="2"/>
<circle cx="446" cy="58" r="15" fill="#44723f"/><path d="M439.0 58l5.0 5.0 10.0 -11.0" fill="none" stroke="#fff" stroke-width="3" stroke-linecap="round" stroke-linejoin="round"/>
<text x="470" y="65" font-size="19" font-weight="700" fill="#365c32" text-anchor="start">Visible label and hint</text>
<text x="436" y="94" font-size="14" font-weight="700" fill="#1f2430" text-anchor="start">Email</text>
<text x="436" y="114" font-size="13" font-weight="400" fill="#5b6270" text-anchor="start">We'll send your receipt here</text>
<rect x="436" y="122" width="316" height="38" rx="8" fill="#fff" stroke="#c7ccd4" stroke-width="1.5"/><text x="448" y="146.0" font-size="15" font-weight="400" fill="#1f2430" text-anchor="start">sam@example</text>
<text x="436" y="196" font-size="14" font-weight="700" fill="#1f2430" text-anchor="start">Password</text>
<text x="436" y="216" font-size="13" font-weight="400" fill="#5b6270" text-anchor="start">At least 8 characters</text>
<rect x="436" y="224" width="316" height="38" rx="8" fill="#fff" stroke="#c7ccd4" stroke-width="1.5"/><text x="448" y="248.0" font-size="15" font-weight="400" fill="#1f2430" text-anchor="start">Tr41l-Mix</text>
<text x="594" y="316" font-size="14" font-weight="700" fill="#365c32" text-anchor="middle">The label and hint stay visible</text>
<text x="594" y="338" font-size="14" font-weight="700" fill="#365c32" text-anchor="middle">while people type</text>
</svg>
