<svg xmlns="http://www.w3.org/2000/svg" viewBox="0 0 800 360" font-family="Inter, system-ui, -apple-system, 'Segoe UI', Roboto, sans-serif">
<rect width="800" height="360" fill="#fff"/>
<rect x="24" y="20" width="364" height="320" rx="16" fill="#fdf0ef" stroke="#f4c7c3" stroke-width="2"/>
<circle cx="58" cy="58" r="15" fill="#b42318"/><path d="M52 52l12 12M64 52l-12 12" stroke="#fff" stroke-width="3" stroke-linecap="round"/>
<text x="82" y="65" font-size="19" font-weight="700" fill="#b42318" text-anchor="start">Swipe is the only way</text>
<rect x="412" y="20" width="364" height="320" rx="16" fill="#f4f8f3" stroke="#cfe1ce" stroke-width="2"/>
<circle cx="446" cy="58" r="15" fill="#44723f"/><path d="M439 58l5 5 10-11" fill="none" stroke="#fff" stroke-width="3" stroke-linecap="round" stroke-linejoin="round"/>
<text x="470" y="65" font-size="19" font-weight="700" fill="#365c32" text-anchor="start">Swipe, or tap the arrows</text><rect x="88" y="100" width="236" height="150" rx="10" fill="#eef0f3" stroke="#c7ccd4" stroke-width="1.5"/><text x="206" y="180" font-size="14" font-weight="700" fill="#5b6270" text-anchor="middle">Slide 2 of 5</text><path d="M256 220L156 220M165.0 215.7L156 220L165.0 224.3" fill="none" stroke="#d64545" stroke-width="2.5" stroke-linecap="round" stroke-linejoin="round"/><circle cx="260" cy="220" r="9" fill="#d64545"/><text x="206" y="306" font-size="14" font-weight="700" fill="#b42318" text-anchor="middle">People who cannot swipe are stuck on one</text>
<text x="206" y="325" font-size="14" font-weight="700" fill="#b42318" text-anchor="middle">slide</text><rect x="476" y="100" width="236" height="150" rx="10" fill="#eef0f3" stroke="#c7ccd4" stroke-width="1.5"/><text x="594" y="180" font-size="14" font-weight="700" fill="#5b6270" text-anchor="middle">Slide 2 of 5</text><rect x="436" y="156" width="32" height="40" rx="8" fill="#fff" stroke="#c7ccd4" stroke-width="1.5"/><text x="452" y="182" font-size="22" font-weight="800" fill="#1f2430" text-anchor="middle">‹</text><rect x="720" y="156" width="32" height="40" rx="8" fill="#fff" stroke="#c7ccd4" stroke-width="1.5"/><text x="736" y="182" font-size="22" font-weight="800" fill="#1f2430" text-anchor="middle">›</text><text x="594" y="306" font-size="14" font-weight="700" fill="#365c32" text-anchor="middle">Previous and next buttons work with one</text>
<text x="594" y="325" font-size="14" font-weight="700" fill="#365c32" text-anchor="middle">tap</text>
</svg>
